<svg width="23" height="20" viewBox="0 0 23 20" fill="#BABFC1" xmlns="http://www.w3.org/2000/svg"><g clip-path="url(#clip0)"><path d="M13.7234 19.375V14.375C13.7234 14.2092 13.6577 14.0503 13.5407 13.9331C13.4237 13.8158 13.265 13.75 13.0996 13.75H9.3569C9.19146 13.75 9.0328 13.8158 8.91582 13.9331C8.79884 14.0503 8.73312 14.2092 8.73312 14.375V19.375C8.73312 19.5408 8.6674 19.6997 8.55042 19.8169C8.43343 19.9342 8.27477 20 8.10934 20H3.11908C2.95364 20 2.79498 19.9342 2.678 19.8169C2.56102 19.6997 2.4953 19.5408 2.4953 19.375V12.1512C2.5647 12.1039 2.6454 12.0773 2.70856 12.0203L11.2282 4.49219L19.7561 12.0273C19.8162 12.0812 19.8949 12.1055 19.9612 12.1523V19.375C19.9612 19.5408 19.8955 19.6997 19.7785 19.8169C19.6615 19.9342 19.5028 20 19.3374 20H14.3472C14.1817 20 14.0231 19.9342 13.9061 19.8169C13.7891 19.6997 13.7234 19.5408 13.7234 19.375Z"></path><path d="M20.5819 11.0908L11.6416 3.18959C11.5276 3.08885 11.3809 3.03327 11.2289 3.03327C11.0769 3.03327 10.9302 3.08885 10.8162 3.18959L1.87587 11.0911C1.75281 11.2019 1.5909 11.2591 1.42575 11.2502C1.2606 11.2414 1.10572 11.1671 0.995164 11.0439L0.160076 10.1134C0.0495784 9.99011 -0.00752514 9.82789 0.001321 9.66242C0.0101671 9.49694 0.0842387 9.34176 0.20725 9.23099L10.1878 0.402866C10.4734 0.144156 10.8447 0.000915527 11.2297 0.000915527C11.6147 0.000915527 11.986 0.144156 12.2716 0.402866L22.2497 9.23099C22.3728 9.34171 22.447 9.49686 22.4559 9.66234C22.4648 9.82781 22.4078 9.99006 22.2973 10.1134L21.463 11.0439C21.4082 11.1049 21.342 11.1546 21.2681 11.19C21.1941 11.2254 21.114 11.2459 21.0321 11.2502C20.9503 11.2546 20.8684 11.2427 20.7912 11.2154C20.7139 11.188 20.6428 11.1457 20.5819 11.0908Z"></path></g><defs><clipPath id="clip0"><rect width="22.4561" height="20" fill="white"></rect></clipPath></defs></svg>