<svg id="Layer_1" data-name="Layer 1" xmlns="http://www.w3.org/2000/svg" viewBox="0 0 316.04 150.91" width="94" height="52"><defs><style>.cls-1{fill:#fff;}.cls-2{fill:#30e7a9;}</style></defs><path class="cls-1" d="M287,38V36h11.47V38h-4.62V50.85h-2.23V38Z"></path><path class="cls-1" d="M301,36h2.71l4.72,11.51h.17L313.33,36H316V50.85h-2.13V40.13h-.13l-4.37,10.7h-1.77l-4.36-10.7h-.14V50.85H301V36Z"></path><path class="cls-1" d="M92.74,89.93V1.56H71.31V92.28c0,16.26,6.72,23.3,21.89,23.3,5.17,0,11.11-1.25,14.55-3.28l1.88-14.08a21.23,21.23,0,0,1-8.76,1.56C95.08,99.78,92.74,97.12,92.74,89.93Z"></path><path class="cls-1" d="M47.39,16a16.43,16.43,0,0,1,9.07,2.35l3-14.23C56.3,1.72,50.21,0,42.85,0,26,0,13.61,8.6,13.61,26.43v9.39H0v16H13.61V114H35V51.77H58.81v-16H34.1V28C34.1,19.24,39.26,16,47.39,16Z"></path><path class="cls-1" d="M156.72,34.25c-23.31,0-39.57,15-39.57,40.67s15.95,40.66,40.66,40.66c15.95,0,29.56-7,34.57-19.39l-17-6.57c-3.13,6.26-8.45,10-17.68,10-10.79,0-17.83-5.79-19.55-18h55.21a99.15,99.15,0,0,0,.63-11C193.94,49.74,180.33,34.25,156.72,34.25ZM138.26,66.78c2-11.1,8.45-16.73,18.3-16.73,9.7,0,15.64,5.94,16.73,16.73Z"></path><path class="cls-2" d="M281.67,36.48a2.48,2.48,0,0,0-2.36-1.12h-17a7.65,7.65,0,0,0-5.89,3.32l-8.46,14a6.28,6.28,0,0,0,.33,6.5l7.19,9.55A3.08,3.08,0,0,0,258,70.06a3.13,3.13,0,0,0,2.52-1.44l20.75-29.57A2.5,2.5,0,0,0,281.67,36.48Z"></path><path class="cls-1" d="M244.87,61.74l-17-23a8.1,8.1,0,0,0-5.78-2.91H204.3c-2,0-2.68,1.33-1.53,3L226,71.49a5.42,5.42,0,0,1,0,5.89l-24.51,33.7c-1.17,1.62-.5,2.94,1.49,2.94h17a7.29,7.29,0,0,0,5.55-3.08l14-22.31c1.06-1.7,2.77-1.68,3.8,0l13.46,22.25a7.14,7.14,0,0,0,5.5,3.11h17.61c2,0,2.66-1.32,1.48-2.92L254.59,74.92"></path><path class="cls-1" d="M172.3,145.71a5.17,5.17,0,0,1-2-.38,4.66,4.66,0,0,1-1.57-1.07,4.56,4.56,0,0,1-1-1.55l.28-.35-.18,3.09h-1.77V126.94h2v8.7l-.25-.38a4.37,4.37,0,0,1,1.71-2,5,5,0,0,1,2.76-.77,5.6,5.6,0,0,1,2.89.78,5.67,5.67,0,0,1,2.1,2.26,8.3,8.3,0,0,1,0,7.09,5.68,5.68,0,0,1-2.12,2.27A5.58,5.58,0,0,1,172.3,145.71Zm-.2-1.78a3.55,3.55,0,0,0,2.93-1.32,5.45,5.45,0,0,0,1.05-3.5,5.52,5.52,0,0,0-1-3.5,3.51,3.51,0,0,0-2.92-1.32,3.62,3.62,0,0,0-2.09.61,4.09,4.09,0,0,0-1.41,1.7,6.67,6.67,0,0,0,0,5.09,3.86,3.86,0,0,0,1.39,1.66A3.76,3.76,0,0,0,172.1,143.93Z"></path><path class="cls-1" d="M192,132.77l-6,14.81a7.61,7.61,0,0,1-1,2,3.42,3.42,0,0,1-1.27,1,3.85,3.85,0,0,1-1.61.32,4.72,4.72,0,0,1-1.58-.25,4.51,4.51,0,0,1-1.28-.64l.55-1.78a3.28,3.28,0,0,0,1.08.67,3.07,3.07,0,0,0,1.13.22,2.14,2.14,0,0,0,1.24-.41,3.54,3.54,0,0,0,1.07-1.64l.66-1.65-1.27-3-4-9.64H182l3.18,8.27.78,2.26.91-2.51,3-8Z"></path><path class="cls-1" d="M209.48,132.77v1.75h-8.8v-1.75Zm-2.1-6a5,5,0,0,1,1.24.15,2.39,2.39,0,0,1,.92.43L209,129a2.18,2.18,0,0,0-.66-.29,3.15,3.15,0,0,0-.78-.09,2.51,2.51,0,0,0-1.7.52,2.06,2.06,0,0,0-.61,1.66v14.61h-2V130.64a4.58,4.58,0,0,1,.25-1.55,3.19,3.19,0,0,1,.78-1.22,3.5,3.5,0,0,1,1.3-.78A5.41,5.41,0,0,1,207.38,126.81Zm5.83,3.52a1.43,1.43,0,1,1,1.11-.41A1.49,1.49,0,0,1,213.21,130.33Zm1,2.44v12.68h-2V132.77Z"></path><path class="cls-1" d="M219,145.45V132.77h1.77l.18,2.84-.33-.28a4.29,4.29,0,0,1,1.09-1.63,4.21,4.21,0,0,1,1.59-.91,6.44,6.44,0,0,1,1.86-.27,5.81,5.81,0,0,1,2.49.52,4.06,4.06,0,0,1,1.78,1.58,5,5,0,0,1,.68,2.72v8.11h-2v-7.4a3.86,3.86,0,0,0-.9-2.93,3.17,3.17,0,0,0-2.22-.83,4.37,4.37,0,0,0-1.83.43,3.61,3.61,0,0,0-1.51,1.4,4.85,4.85,0,0,0-.59,2.59v6.74Z"></path><path class="cls-1" d="M242.05,137.26a3,3,0,0,0-.76-2.19,2.86,2.86,0,0,0-2.15-.78,4.17,4.17,0,0,0-2.24.57,3.4,3.4,0,0,0-1.34,1.84l-1.65-1a4.43,4.43,0,0,1,1.88-2.3,7,7,0,0,1,5.88-.4,3.89,3.89,0,0,1,1.77,1.42,4.26,4.26,0,0,1,.64,2.44V143c0,.61.32.91,1,.91a3.59,3.59,0,0,0,.93-.12l-.1,1.6a3.1,3.1,0,0,1-1.32.25,3,3,0,0,1-1.32-.28,2.07,2.07,0,0,1-.91-.85,2.83,2.83,0,0,1-.33-1.43v-.26l.51.08a3.3,3.3,0,0,1-1,1.61,4.61,4.61,0,0,1-1.65.91,5.76,5.76,0,0,1-1.8.3,5.69,5.69,0,0,1-2.08-.38,3.44,3.44,0,0,1-1.53-1.16,3.06,3.06,0,0,1-.58-1.91,3.13,3.13,0,0,1,1-2.35,5,5,0,0,1,2.65-1.26l5-1v1.67l-4.09.84a4.69,4.69,0,0,0-1.85.71,1.49,1.49,0,0,0-.61,1.26,1.56,1.56,0,0,0,.63,1.29,2.75,2.75,0,0,0,1.76.49,5.05,5.05,0,0,0,1.41-.19,3.82,3.82,0,0,0,1.2-.58,2.76,2.76,0,0,0,.84-1,3.12,3.12,0,0,0,.3-1.41Z"></path><path class="cls-1" d="M259.25,132.77l-5,6.77h-.13l-4.36,5.91h-2.36l5.53-7.28h.15l3.81-5.4Zm-9,0,3.78,5.3.13.18,5.2,7.2h-2.49l-3.93-5.5-.23-.28-5-6.9Z"></path><path class="cls-1" d="M269.65,137.26a3,3,0,0,0-.76-2.19,2.89,2.89,0,0,0-2.16-.78,4.13,4.13,0,0,0-2.23.57,3.3,3.3,0,0,0-1.34,1.84l-1.65-1a4.46,4.46,0,0,1,1.87-2.3,7,7,0,0,1,5.89-.4,3.86,3.86,0,0,1,1.76,1.42,4.26,4.26,0,0,1,.65,2.44V143c0,.61.32.91,1,.91a3.67,3.67,0,0,0,.94-.12l-.1,1.6a3.1,3.1,0,0,1-1.32.25,3,3,0,0,1-1.32-.28,2,2,0,0,1-.91-.85,2.83,2.83,0,0,1-.33-1.43v-.26l.51.08a3.37,3.37,0,0,1-1,1.61,4.61,4.61,0,0,1-1.65.91,5.76,5.76,0,0,1-1.8.3,5.66,5.66,0,0,1-2.08-.38,3.42,3.42,0,0,1-1.54-1.16,3.11,3.11,0,0,1-.57-1.91,3.16,3.16,0,0,1,.95-2.35,5.1,5.1,0,0,1,2.65-1.26l5-1v1.67l-4.09.84a4.63,4.63,0,0,0-1.85.71,1.47,1.47,0,0,0-.61,1.26,1.58,1.58,0,0,0,.62,1.29,2.78,2.78,0,0,0,1.77.49,4.93,4.93,0,0,0,1.4-.19,3.87,3.87,0,0,0,1.21-.58,3,3,0,0,0,.84-1,3.12,3.12,0,0,0,.3-1.41Z"></path><path class="cls-1" d="M276.6,145.45V132.77h1.65l.28,2.08a3.66,3.66,0,0,1,1.56-1.75,5,5,0,0,1,2.5-.58,4.67,4.67,0,0,1,.72,0,1.88,1.88,0,0,1,.67.2l-.35,1.85a2.87,2.87,0,0,0-.61-.15,7.33,7.33,0,0,0-.94-.05,3.15,3.15,0,0,0-1.59.46,3.61,3.61,0,0,0-1.33,1.38,4.71,4.71,0,0,0-.53,2.34v6.85Z"></path></svg>