<svg width="23" height="25" viewBox="0 0 18 25" fill="#81919B" xmlns="http://www.w3.org/2000/svg"><path d="M17.9999 6.04161H12.7499C12.551 6.04161 12.3602 5.96204 12.2196 5.82041C12.0789 5.67878 11.9999 5.48669 11.9999 5.2864V-5.7477e-05H1.12493C0.977559 -0.000429851 0.831562 0.0284294 0.69527 0.0848724C0.558978 0.141316 0.435062 0.224237 0.330596 0.328903C0.22613 0.433568 0.14316 0.557928 0.086424 0.694881C0.0296878 0.831835 0.00029612 0.9787 -7.27604e-05 1.12709V23.0338C-0.000442566 23.1822 0.0282176 23.3292 0.0842714 23.4664C0.140325 23.6037 0.222675 23.7285 0.326619 23.8336C0.430562 23.9388 0.554064 24.0224 0.690073 24.0795C0.826082 24.1366 0.971934 24.1662 1.1193 24.1666H16.8749C17.0223 24.167 17.1683 24.1381 17.3046 24.0817C17.4409 24.0252 17.5648 23.9423 17.6693 23.8376C17.7737 23.733 17.8567 23.6086 17.9134 23.4717C17.9702 23.3347 17.9996 23.1879 17.9999 23.0395V6.04161ZM2.99993 3.39838C2.99993 3.29823 3.03944 3.20219 3.10976 3.13137C3.18009 3.06056 3.27547 3.02078 3.37493 3.02078H7.12493C7.22438 3.02078 7.31977 3.06056 7.39009 3.13137C7.46042 3.20219 7.49993 3.29823 7.49993 3.39838V4.15359C7.49993 4.25374 7.46042 4.34978 7.39009 4.42059C7.31977 4.49141 7.22438 4.53119 7.12493 4.53119H3.37493C3.27547 4.53119 3.18009 4.49141 3.10976 4.42059C3.03944 4.34978 2.99993 4.25374 2.99993 4.15359V3.39838ZM2.99993 7.17442V6.41921C2.99993 6.31907 3.03944 6.22302 3.10976 6.15221C3.18009 6.08139 3.27547 6.04161 3.37493 6.04161H7.12493C7.22438 6.04161 7.31977 6.08139 7.39009 6.15221C7.46042 6.22302 7.49993 6.31907 7.49993 6.41921V7.17442C7.49993 7.27457 7.46042 7.37061 7.39009 7.44143C7.31977 7.51224 7.22438 7.55203 7.12493 7.55203H3.37493C3.27547 7.55203 3.18009 7.51224 3.10976 7.44143C3.03944 7.37061 2.99993 7.27457 2.99993 7.17442ZM9.74993 19.6297V20.7682C9.74993 20.8683 9.71042 20.9644 9.64009 21.0352C9.56977 21.106 9.47438 21.1458 9.37493 21.1458H8.62493C8.52547 21.1458 8.43009 21.106 8.35976 21.0352C8.28943 20.9644 8.24993 20.8683 8.24993 20.7682V19.6217C7.71786 19.5938 7.20602 19.4074 6.77946 19.0859C6.73674 19.0525 6.70172 19.0101 6.67681 18.9617C6.6519 18.9133 6.63768 18.8601 6.63514 18.8056C6.63261 18.7512 6.6418 18.6968 6.6621 18.6463C6.6824 18.5958 6.71332 18.5503 6.75274 18.5129L7.30352 17.9833C7.36739 17.9249 7.44892 17.8897 7.53502 17.8834C7.62113 17.8772 7.70682 17.9002 7.77836 17.9489C7.95817 18.0635 8.1665 18.1245 8.3793 18.1249H9.69696C10.0016 18.1249 10.2501 17.8455 10.2501 17.5024C10.2501 17.2215 10.0809 16.9742 9.83899 16.9015L7.72961 16.2643C6.85821 16.0009 6.2493 15.1589 6.2493 14.2163C6.2493 13.0589 7.14227 12.1187 8.24946 12.0889V10.9505C8.24946 10.8503 8.28897 10.7543 8.35929 10.6835C8.42962 10.6126 8.525 10.5729 8.62446 10.5729H9.37446C9.47391 10.5729 9.5693 10.6126 9.63962 10.6835C9.70995 10.7543 9.74946 10.8503 9.74946 10.9505V12.097C10.2816 12.1244 10.7936 12.3109 11.2199 12.6327C11.2626 12.6662 11.2977 12.7085 11.3226 12.7569C11.3475 12.8053 11.3617 12.8586 11.3642 12.913C11.3668 12.9674 11.3576 13.0218 11.3373 13.0723C11.317 13.1229 11.2861 13.1684 11.2466 13.2057L10.6959 13.7353C10.632 13.7938 10.5505 13.829 10.4644 13.8352C10.3783 13.8414 10.2926 13.8184 10.221 13.7697C10.0413 13.655 9.8329 13.594 9.62008 13.5937H8.30243C7.99774 13.5937 7.7493 13.8731 7.7493 14.2163C7.7493 14.4971 7.91852 14.7444 8.16039 14.8171L10.2698 15.4543C11.1412 15.7177 11.7501 16.5598 11.7501 17.5024C11.7501 18.6602 10.8595 19.6 9.74993 19.6297Z"></path><path d="M17.6718 4.956L13.0828 0.330346C12.978 0.22524 12.8537 0.141958 12.717 0.0852646C12.5803 0.0285708 12.4338 -0.000422765 12.2859 -5.76288e-05H12V5.2864C12 5.48669 12.079 5.67878 12.2196 5.82041C12.3603 5.96204 12.551 6.04161 12.75 6.04161H18V5.75369C18 5.60554 17.971 5.45885 17.9147 5.32198C17.8584 5.18511 17.7759 5.06075 17.6718 4.956ZM10.2698 15.4543L8.16043 14.8171C7.91856 14.7444 7.74934 14.4971 7.74934 14.2163C7.74934 13.8731 7.99778 13.5937 8.30246 13.5937H9.62012C9.83294 13.594 10.0413 13.655 10.2211 13.7698C10.2926 13.8184 10.3783 13.8414 10.4644 13.8352C10.5505 13.829 10.632 13.7938 10.6959 13.7353L11.2471 13.2057C11.2866 13.1684 11.3175 13.1229 11.3378 13.0723C11.3581 13.0218 11.3673 12.9675 11.3647 12.913C11.3622 12.8586 11.348 12.8053 11.3231 12.7569C11.2982 12.7085 11.2632 12.6662 11.2204 12.6327C10.7941 12.3109 10.2821 12.1244 9.74996 12.097V10.9505C9.74996 10.8503 9.71045 10.7543 9.64013 10.6835C9.5698 10.6126 9.47442 10.5729 9.37496 10.5729H8.62496C8.52551 10.5729 8.43012 10.6126 8.3598 10.6835C8.28947 10.7543 8.24996 10.8503 8.24996 10.9505V12.0889C7.14278 12.1187 6.24981 13.0589 6.24981 14.2163C6.24981 15.1603 6.85918 16.0009 7.73012 16.2643L9.83949 16.9015C10.0814 16.9742 10.2506 17.2215 10.2506 17.5024C10.2506 17.8455 10.0022 18.1249 9.69746 18.1249H8.37934C8.16654 18.1245 7.95821 18.0635 7.7784 17.9489C7.70686 17.9002 7.62117 17.8772 7.53506 17.8834C7.44896 17.8897 7.36743 17.9249 7.30356 17.9833L6.75278 18.5129C6.71336 18.5503 6.68244 18.5958 6.66214 18.6463C6.64184 18.6968 6.63265 18.7512 6.63518 18.8056C6.63772 18.8601 6.65194 18.9133 6.67685 18.9617C6.70176 19.0101 6.73678 19.0525 6.7795 19.0859C7.20606 19.4074 7.7179 19.5938 8.24996 19.6217V20.7682C8.24996 20.8683 8.28947 20.9644 8.3598 21.0352C8.43012 21.106 8.52551 21.1458 8.62496 21.1458H9.37496C9.47442 21.1458 9.5698 21.106 9.64013 21.0352C9.71045 20.9644 9.74996 20.8683 9.74996 20.7682V19.6297C10.8595 19.6 11.7501 18.6602 11.7501 17.5024C11.7501 16.5598 11.1412 15.7177 10.2698 15.4543Z" fill="#3F505A"></path></svg>