<svg width="26" height="25" viewBox="0 0 26 25" fill="#81919B" xmlns="http://www.w3.org/2000/svg"><path d="M25.5015 9.788C25.5015 10.0995 25.354 10.3983 25.0913 10.6185C24.8287 10.8388 24.4725 10.9626 24.101 10.9626H10.0963C9.7249 10.9626 9.36869 10.8388 9.10605 10.6185C8.84341 10.3983 8.69586 10.0995 8.69586 9.788V5.48128H25.5015V9.788ZM19.8996 8.12404C19.8996 8.04616 19.8627 7.97147 19.7971 7.91641C19.7314 7.86134 19.6424 7.8304 19.5495 7.8304H15.5815C15.4886 7.8304 15.3996 7.86134 15.3339 7.91641C15.2683 7.97147 15.2314 8.04616 15.2314 8.12404V9.10284C15.2314 9.18072 15.2683 9.25541 15.3339 9.31048C15.3996 9.36554 15.4886 9.39648 15.5815 9.39648H19.5495C19.6424 9.39648 19.7314 9.36554 19.7971 9.31048C19.8627 9.25541 19.8996 9.18072 19.8996 9.10284V8.12404ZM23.6342 8.12404C23.6342 8.04616 23.5973 7.97147 23.5317 7.91641C23.466 7.86134 23.3769 7.8304 23.2841 7.8304H21.1834C21.0905 7.8304 21.0015 7.86134 20.9358 7.91641C20.8702 7.97147 20.8333 8.04616 20.8333 8.12404V9.10284C20.8333 9.18072 20.8702 9.25541 20.9358 9.31048C21.0015 9.36554 21.0905 9.39648 21.1834 9.39648H23.2841C23.3769 9.39648 23.466 9.36554 23.5317 9.31048C23.5973 9.25541 23.6342 9.18072 23.6342 9.10284V8.12404ZM10.0963 0H24.101C24.4725 0 24.8287 0.123748 25.0913 0.344021C25.354 0.564293 25.5015 0.863047 25.5015 1.17456V2.34912H8.69586V1.17456C8.69586 0.863047 8.84341 0.564293 9.10605 0.344021C9.36869 0.123748 9.7249 0 10.0963 0Z"></path><path d="M8.6959 5.48116H25.5015V2.349H8.6959V5.48116Z" fill="#3F505A"></path><path d="M3.38502 15.4408L3.80178 15.3025L3.71845 14.8714C3.65792 14.5582 3.62663 14.2399 3.625 13.9208C3.62479 13.2617 3.75329 12.6092 4.00307 12.0005C4.25298 11.3914 4.61934 10.8383 5.08098 10.3727C5.54262 9.90702 6.09048 9.53794 6.69313 9.28634C7.29577 9.03474 7.94152 8.90547 8.59348 8.90582H8.59375C10.5023 8.90582 12.1541 10.0151 12.983 11.6288L13.3283 12.3011L13.812 11.7204C14.4427 10.9629 15.3656 10.4819 16.4062 10.4819C17.3082 10.4819 18.1742 10.8433 18.8133 11.488C19.4526 12.1328 19.8125 13.0083 19.8125 13.9221L19.8125 13.9251C19.8139 14.1585 19.7911 14.3915 19.7445 14.6201L19.6221 15.22H20.2344C20.2735 15.22 20.3058 15.2161 20.3267 15.213C20.3324 15.2121 20.3382 15.2112 20.3434 15.2103C21.4414 15.2185 22.4936 15.6619 23.272 16.4471C24.0578 17.2397 24.5 18.3156 24.5 19.4384C24.5 20.5612 24.0578 21.6372 23.272 22.4298C22.4863 23.2223 21.4217 23.6667 20.3125 23.6667H4.6875C3.57831 23.6667 2.51367 23.2223 1.72802 22.4298C0.942224 21.6372 0.5 20.5612 0.5 19.4384C0.5 17.5682 1.71216 15.996 3.38502 15.4408Z" stroke="#1A2831"></path></svg>