<svg width="25" height="25" viewBox="0 0 25 25" fill="#81919B" xmlns="http://www.w3.org/2000/svg"><path d="M13.6522 2.92389C12.4022 2.92389 11.2065 3.19563 10.0652 3.63041C10.3913 4.22824 10.5544 4.88041 10.5544 5.53258C10.5544 7.81519 8.70653 9.66302 6.42392 9.66302C5.77175 9.66302 5.11958 9.49998 4.5761 9.22824C4.19566 10.2608 3.97827 11.4021 3.97827 12.5978C3.97827 17.9239 8.27175 22.2717 13.6522 22.2717C19.0326 22.2717 23.3261 17.9782 23.3261 12.5978C23.3261 7.21737 18.9783 2.92389 13.6522 2.92389ZM14.25 16.8913V18.0326C14.25 18.1956 14.1413 18.3587 13.9239 18.3587H13.1631C13 18.3587 12.837 18.25 12.837 18.0326V17C12.1304 16.9456 11.4783 16.8369 10.9348 16.6195C10.6631 16.5108 10.5 16.1848 10.5544 15.913L10.6631 15.4239C10.7174 15.2608 10.8261 15.0978 10.9891 15.0435C11.1522 14.9891 11.3152 14.9348 11.4783 15.0435C11.9674 15.2608 12.5652 15.3695 13.2174 15.3695C14.0326 15.3695 14.5761 15.0435 14.5761 14.5C14.5761 13.9565 14.1413 13.6304 13.1087 13.3043C11.587 12.8152 10.5544 12.1087 10.5544 10.75C10.5544 9.49998 11.4239 8.52172 12.9457 8.24998V7.21737C12.9457 7.05432 13.1087 6.89128 13.2717 6.89128H14.0326C14.1957 6.89128 14.3587 7.05432 14.3587 7.21737V8.14128C15.0109 8.19563 15.5 8.24998 15.8804 8.41302C16.1522 8.52172 16.3696 8.8478 16.2609 9.11954L16.1522 9.55432C16.0978 9.71737 15.9891 9.82606 15.8804 9.93476C15.7174 9.98911 15.5544 10.0435 15.3913 9.98911C15.0109 9.88041 14.5761 9.77172 13.9783 9.77172C13.0544 9.77172 12.7826 10.1521 12.7826 10.5326C12.7826 11.0217 13.2717 11.2935 14.4674 11.7282C16.1522 12.3261 16.8044 13.0869 16.8044 14.3369C16.75 15.5326 15.8804 16.6195 14.25 16.8913Z"></path><path d="M4.90217 8.68478C5.3913 8.95652 5.93478 9.06522 6.53261 9.06522C8.48913 9.06522 10.0652 7.48913 10.0652 5.53261C10.0652 4.93478 9.90217 4.33696 9.63043 3.84783C9.03261 2.76087 7.8913 2 6.53261 2C4.57609 2 3 3.57609 3 5.53261C3 6.94565 3.76087 8.08696 4.90217 8.68478ZM4.95652 5.26087H6.20652V4.01087C6.20652 3.84783 6.31522 3.73913 6.47826 3.73913C6.6413 3.73913 6.75 3.84783 6.75 4.01087V5.26087H7.40217H8C8.16304 5.26087 8.27174 5.36957 8.27174 5.53261C8.27174 5.69565 8.16304 5.80435 8 5.80435H6.75V7.05435C6.75 7.21739 6.6413 7.32609 6.47826 7.32609C6.31522 7.32609 6.20652 7.21739 6.20652 7.05435V6.45652V5.80435H4.95652C4.79348 5.80435 4.68478 5.69565 4.68478 5.53261C4.68478 5.42391 4.79348 5.26087 4.95652 5.26087Z"></path></svg>