<svg width="25" height="20" viewBox="0 0 25 20" fill="#81919B" xmlns="http://www.w3.org/2000/svg"><path d="M24.9379 15.1173C24.9191 15.0046 24.8608 14.9023 24.7735 14.8286C24.6862 14.7549 24.5756 14.7147 24.4614 14.7149H23.8168C23.6776 14.3229 23.467 13.96 23.1958 13.6446L23.5157 13.086C23.5723 12.9872 23.5924 12.8716 23.5724 12.7595C23.5524 12.6474 23.4936 12.5459 23.4063 12.4727C23.0323 12.1616 22.6083 11.916 22.1524 11.7462C22.0451 11.7055 21.9267 11.7043 21.8186 11.743C21.7105 11.7817 21.6197 11.8576 21.5626 11.9571L21.2422 12.5157C20.8328 12.4415 20.4134 12.4415 20.004 12.5157L19.6837 11.9571C19.6265 11.8576 19.5357 11.7817 19.4276 11.743C19.3195 11.7043 19.2012 11.7055 19.0938 11.7462C18.6383 11.9169 18.2145 12.1624 17.8399 12.4727C17.7518 12.5453 17.6924 12.6469 17.6724 12.7593C17.6523 12.8716 17.6729 12.9875 17.7305 13.086L18.0508 13.6446C17.7796 13.96 17.569 14.3229 17.4298 14.7149H16.7852C16.6706 14.7155 16.5599 14.7566 16.4727 14.831C16.3855 14.9053 16.3274 15.0081 16.3087 15.1212C16.2286 15.6009 16.2286 16.0906 16.3087 16.5704C16.3275 16.6831 16.3858 16.7853 16.4731 16.859C16.5604 16.9327 16.671 16.973 16.7852 16.9727H17.4298C17.569 17.3648 17.7796 17.7276 18.0508 18.0431L17.7305 18.6016C17.6739 18.7004 17.6538 18.816 17.6738 18.9282C17.6938 19.0403 17.7526 19.1418 17.8399 19.2149C18.2139 19.526 18.6379 19.7717 19.0938 19.9415C19.2012 19.9822 19.3195 19.9833 19.4276 19.9447C19.5357 19.906 19.6265 19.8301 19.6837 19.7306L20.004 19.172C20.4134 19.2462 20.8328 19.2462 21.2422 19.172L21.5626 19.7306C21.6197 19.8301 21.7105 19.906 21.8186 19.9447C21.9267 19.9833 22.0451 19.9822 22.1524 19.9415C22.6079 19.7708 23.0317 19.5252 23.4063 19.2149C23.4944 19.1424 23.5538 19.0408 23.5738 18.9284C23.5939 18.816 23.5733 18.7002 23.5157 18.6016L23.1954 18.0431C23.4666 17.7276 23.6772 17.3648 23.8165 16.9727H24.461C24.5756 16.9722 24.6863 16.9311 24.7735 16.8567C24.8607 16.7824 24.9188 16.6796 24.9376 16.5665C25.0178 16.0868 25.0179 15.597 24.9379 15.1173ZM19.5942 16.8712C18.438 15.3673 20.1528 13.6524 21.6567 14.8087C22.8126 16.3122 21.0981 18.027 19.5942 16.8708V16.8712ZM24.9379 3.44149C24.9191 3.32883 24.8608 3.22655 24.7735 3.15286C24.6862 3.07917 24.5756 3.03887 24.4614 3.03915H23.8168C23.6776 2.64712 23.467 2.28424 23.1958 1.96883L23.5161 1.41024C23.5727 1.31144 23.5928 1.19585 23.5728 1.08373C23.5528 0.971601 23.494 0.870086 23.4067 0.796959C23.0327 0.485836 22.6087 0.240187 22.1528 0.0703966C22.0454 0.029551 21.9271 0.0283114 21.8189 0.0669006C21.7107 0.10549 21.6198 0.18138 21.5626 0.280943L21.2422 0.839537C20.8328 0.765318 20.4134 0.765318 20.004 0.839537L19.6837 0.280943C19.6265 0.181399 19.5357 0.105488 19.4276 0.0668311C19.3195 0.0281738 19.2012 0.0292994 19.0938 0.070006C18.6383 0.24069 18.2145 0.486256 17.8399 0.796568C17.7518 0.869138 17.6924 0.970707 17.6724 1.08308C17.6523 1.19546 17.6729 1.31129 17.7305 1.40985L18.0508 1.96844C17.7796 2.28385 17.569 2.64673 17.4298 3.03876H16.7852C16.6706 3.03934 16.5599 3.08044 16.4727 3.15479C16.3855 3.22914 16.3274 3.33194 16.3087 3.44501C16.2286 3.92476 16.2286 4.41447 16.3087 4.89422C16.3275 5.00688 16.3858 5.10917 16.4731 5.18286C16.5604 5.25655 16.671 5.29684 16.7852 5.29657H17.4298C17.569 5.6886 17.7796 6.05147 18.0508 6.36688L17.7305 6.92547C17.6739 7.02428 17.6538 7.13986 17.6738 7.25199C17.6938 7.36411 17.7526 7.46563 17.8399 7.53876C18.2139 7.84988 18.6379 8.09553 19.0938 8.26532C19.2012 8.30602 19.3195 8.30715 19.4276 8.26849C19.5357 8.22984 19.6265 8.15392 19.6837 8.05438L20.004 7.49579C20.4134 7.57001 20.8328 7.57001 21.2422 7.49579L21.5626 8.05438C21.6197 8.15392 21.7105 8.22984 21.8186 8.26849C21.9267 8.30715 22.0451 8.30602 22.1524 8.26532C22.6079 8.09463 23.0317 7.84907 23.4063 7.53876C23.4944 7.46619 23.5538 7.36462 23.5738 7.25224C23.5939 7.13987 23.5733 7.02403 23.5157 6.92547L23.1954 6.36688C23.4666 6.05147 23.6772 5.6886 23.8165 5.29657H24.461C24.5756 5.29599 24.6863 5.25488 24.7735 5.18054C24.8607 5.10619 24.9188 5.00339 24.9376 4.89032C25.0178 4.41059 25.0179 3.92087 24.9379 3.4411V3.44149ZM19.5942 5.1993C18.438 3.6954 20.1528 1.97665 21.6567 3.1368C22.8126 4.64032 21.0981 6.35516 19.5942 5.19891V5.1993Z"></path><path d="M16.4063 11.8667L15.0903 11.2108C15.2426 10.391 15.2426 9.55018 15.0903 8.73038L16.4067 8.07413C16.8012 7.84366 16.9536 7.36319 16.7973 6.93741C16.4497 5.9921 15.7856 5.12491 15.1528 4.3671C15.0113 4.19898 14.8151 4.08608 14.5987 4.04822C14.3822 4.01036 14.1594 4.04996 13.9692 4.16007L12.8325 4.81632C12.1997 4.27547 11.4727 3.85572 10.688 3.57803V2.26553C10.6874 2.04442 10.6086 1.83062 10.4657 1.66193C10.3227 1.49324 10.1247 1.38051 9.90671 1.34366C8.92387 1.1789 7.92036 1.18023 6.93796 1.34757C6.72278 1.38621 6.52807 1.49938 6.388 1.66724C6.24793 1.83509 6.17144 2.04691 6.17194 2.26553V3.58194C5.38646 3.85808 4.65924 4.27799 4.02741 4.82022L2.89069 4.16358C2.70058 4.05332 2.47767 4.01363 2.26118 4.0515C2.04469 4.08937 1.84849 4.20236 1.7071 4.37061C1.07428 5.12843 0.406316 5.99561 0.0586594 6.94093C-0.0182573 7.14773 -0.0192452 7.37513 0.0558716 7.58259C0.130988 7.79006 0.27733 7.96411 0.468816 8.07374L1.7696 8.73389C1.61725 9.55239 1.61725 10.392 1.7696 11.2105L0.468816 11.8667C0.278105 11.9781 0.132569 12.1529 0.0576066 12.3607C-0.0173555 12.5684 -0.0169829 12.7959 0.0586594 13.0034C0.406316 13.9448 1.07428 14.812 1.7071 15.5698C1.84859 15.738 2.04478 15.8509 2.26122 15.8887C2.47767 15.9266 2.70054 15.887 2.89069 15.7769L4.02741 15.1245C4.66022 15.6654 5.38717 16.0851 6.17194 16.3628V17.6753C6.17253 17.8964 6.25126 18.1102 6.39422 18.2789C6.53718 18.4476 6.73516 18.5603 6.95319 18.5972C7.93433 18.7652 8.93689 18.7652 9.91803 18.5972C10.1341 18.5584 10.3297 18.4447 10.4704 18.2762C10.6111 18.1076 10.688 17.8949 10.6876 17.6753V16.3628C11.473 16.0867 12.2003 15.6668 12.8321 15.1245L13.9688 15.7808C14.1589 15.891 14.3818 15.9307 14.5983 15.8929C14.8148 15.855 15.011 15.742 15.1524 15.5737C15.7852 14.8159 16.4688 13.9487 16.8165 13.0034C16.8931 12.796 16.894 12.5682 16.819 12.3602C16.7439 12.1522 16.5978 11.9774 16.4063 11.8667ZM10.4962 12.0347C7.48835 14.3472 4.05475 10.9136 6.36725 7.90577C9.37507 5.59327 12.809 9.02686 10.4965 12.0347H10.4962Z"></path></svg>