<svg width="25" height="17" viewBox="0 0 25 17" fill="#81919B" xmlns="http://www.w3.org/2000/svg"><path d="M24.3526 14.6726C24.3526 15.1396 24.1388 15.5874 23.7582 15.9176C23.3776 16.2478 22.8615 16.4333 22.3232 16.4333H2.02938C1.49116 16.4333 0.974976 16.2478 0.594393 15.9176C0.21381 15.5874 0 15.1396 0 14.6726V8.21667H24.3526V14.6726ZM16.2351 12.1783C16.2351 12.0615 16.1816 11.9496 16.0865 11.867C15.9913 11.7845 15.8623 11.7381 15.7277 11.7381H9.97781C9.84325 11.7381 9.7142 11.7845 9.61906 11.867C9.52391 11.9496 9.47046 12.0615 9.47046 12.1783V13.6455C9.47046 13.7623 9.52391 13.8742 9.61906 13.9568C9.7142 14.0393 9.84325 14.0857 9.97781 14.0857H15.7277C15.8623 14.0857 15.9913 14.0393 16.0865 13.9568C16.1816 13.8742 16.2351 13.7623 16.2351 13.6455V12.1783ZM21.6468 12.1783C21.6468 12.0615 21.5933 11.9496 21.4982 11.867C21.403 11.7845 21.274 11.7381 21.1394 11.7381H18.0953C17.9608 11.7381 17.8317 11.7845 17.7366 11.867C17.6414 11.9496 17.588 12.0615 17.588 12.1783V13.6455C17.588 13.7623 17.6414 13.8742 17.7366 13.9568C17.8317 14.0393 17.9608 14.0857 18.0953 14.0857H21.1394C21.274 14.0857 21.403 14.0393 21.4982 13.9568C21.5933 13.8742 21.6468 13.7623 21.6468 13.6455V12.1783ZM2.02938 0H22.3232C22.8615 0 23.3776 0.185503 23.7582 0.515701C24.1388 0.845899 24.3526 1.29374 24.3526 1.76071V3.52143H0V1.76071C0 1.29374 0.21381 0.845899 0.594393 0.515701C0.974976 0.185503 1.49116 0 2.02938 0Z"></path><path d="M9.15527e-05 8.21654H24.3527V3.5213H9.15527e-05V8.21654Z" fill="#3F505A"></path></svg>