<svg style="width: 100%; height: 100%; transform: translate3d(0px, 0px, 0px);" preserveAspectRatio="xMidYMid meet" height="1080" width="1920" viewBox="0 0 1920 1080" xmlns="http://www.w3.org/2000/svg"><defs><clipPath id="__lottie_element_2"><rect y="0" x="0" height="1080" width="1920"></rect></clipPath><clipPath id="__lottie_element_4"><path fill-opacity="1" d="M0.25,0.25 C0.25,0.25 0.25,543.718994140625 0.25,543.718994140625 C0.25,543.718994140625 488.093994140625,543.718994140625 488.093994140625,543.718994140625 C488.093994140625,543.718994140625 700.093994140625,408.25 700.093994140625,408.25 C700.093994140625,408.25 492.42498779296875,0.4860000014305115 492.42498779296875,0.4860000014305115 C492.42498779296875,0.4860000014305115 0.25,0.25 0.25,0.25" clip-rule="nonzero" fill="#ffffff"></path></clipPath><clipPath id="__lottie_element_19"><path fill-opacity="1" d="M0.25,0.25 C0.25,0.25 0.25,543.7050170898438 0.25,543.7050170898438 C0.25,543.7050170898438 125.18699645996094,543.4099731445312 125.18699645996094,543.4099731445312 C125.18699645996094,543.4099731445312 127.18699645996094,166 127.18699645996094,166 C127.18699645996094,166 133.18699645996094,382.25 133.18699645996094,382.25 C133.18699645996094,382.25 646.8720092773438,382.25 646.8720092773438,382.25 C646.8720092773438,382.25 489.3559875488281,-15.116000175476074 489.3559875488281,-15.116000175476074 C489.3559875488281,-15.116000175476074 0.25,0.25 0.25,0.25" clip-rule="nonzero" fill="#ffffff"></path></clipPath><clipPath id="__lottie_element_22"><path fill-opacity="1" d="M0.25,0.25 C0.25,0.25 0.25,226.58999633789062 0.25,226.58999633789062 C0.25,226.58999633789062 249.29299926757812,226.58999633789062 249.29299926757812,226.58999633789062 C249.29299926757812,226.58999633789062 249.29299926757812,0.25 249.29299926757812,0.25 C249.29299926757812,0.25 0.25,0.25 0.25,0.25" clip-rule="nonzero" fill="#ffffff"></path></clipPath></defs><g clip-path="url(#__lottie_element_2)"><g style="display: block;" opacity="1" transform="matrix(1,0,0,1,1450.883056640625,583.1740112304688)" clip-path="url(#__lottie_element_22)"><g transform="matrix(1,0,0,1,124.77100372314453,113.41999816894531)" opacity="1"><path d="M-11.411999702453613,-113.16999816894531 C-68.93599700927734,-98.36299896240234 -124.52100372314453,-100.31500244140625 -124.52100372314453,-100.31500244140625 C-124.52100372314453,-100.31500244140625 -4.541999816894531,113.16999816894531 -4.541999816894531,113.16999816894531 C-4.541999816894531,113.16999816894531 124.52100372314453,113.16999816894531 124.52100372314453,113.16999816894531 C124.52100372314453,113.16999816894531 -11.411999702453613,-113.16999816894531 -11.411999702453613,-113.16999816894531z" fill-opacity="1" fill="rgb(33,55,69)"></path></g></g><g style="display: block;" opacity="1" transform="matrix(1,0,0,1,1201.1280517578125,268.0000305175781)" clip-path="url(#__lottie_element_19)"><g transform="matrix(1,0,0,1,236.71800231933594,271.9779968261719)" opacity="1"><path d="M223.2310028076172,-183.1790008544922 C216.36000061035156,-200.8419952392578 206.4219970703125,-216.5279998779297 192.50399780273438,-229.35499572753906 C157.23899841308594,-261.78900146484375 93.0469970703125,-270.97601318359375 62.233001708984375,-270.97601318359375 C56.98500061035156,-270.97601318359375 -236.46800231933594,-271.72698974609375 -236.46800231933594,-271.72698974609375 C-236.46800231933594,-271.72698974609375 -236.46800231933594,271.72698974609375 -236.46800231933594,271.72698974609375 C-236.46800231933594,271.72698974609375 -121.8239974975586,271.72698974609375 -121.8239974975586,271.72698974609375 C-121.8239974975586,271.72698974609375 -121.8239974975586,-174.83299255371094 -121.8239974975586,-174.83299255371094 C-121.8239974975586,-174.83299255371094 18.650999069213867,-174.83299255371094 18.650999069213867,-174.83299255371094 C97.41100311279297,-174.83299255371094 120.41100311279297,-138.2550048828125 120.41100311279297,-105.98200225830078 C120.41100311279297,-73.04499816894531 97.46900177001953,-37.05699920654297 18.650999069213867,-37.05699920654297 C18.650999069213867,-37.05699920654297 -98.52899932861328,-37.05699920654297 -98.52899932861328,-37.05699920654297 C-98.52899932861328,-37.05699920654297 -98.52899932861328,58.301998138427734 -98.52899932861328,58.301998138427734 C-98.52899932861328,58.301998138427734 13.28600025177002,58.301998138427734 13.28600025177002,58.301998138427734 C13.28600025177002,58.301998138427734 68.87100219726562,60.25199890136719 126.3949966430664,45.44599914550781 C164.37600708007812,36.362998962402344 192.32899475097656,18.024999618530273 210.31500244140625,-9.442999839782715 C228.2429962158203,-36.92399978637695 236.468994140625,-70.15699768066406 236.468994140625,-105.8949966430664 C236.468994140625,-134.90899658203125 230.0709991455078,-165.4720001220703 223.2310028076172,-183.1790008544922z" fill-opacity="1" fill="rgb(33,55,69)"></path></g></g><g opacity="1" transform="matrix(1,0,0,1,938.5789794921875,560.4650268554688)" style="display: block;"><g transform="matrix(1,0,0,1,119.8479995727539,125.77400207519531)" opacity="1"><path d="M-50.893001556396484,-125.5250015258789 C-50.893001556396484,-125.5250015258789 119.5979995727539,125.5250015258789 119.5979995727539,125.5250015258789 C119.5979995727539,125.5250015258789 -17.839000701904297,125.5250015258789 -17.839000701904297,125.5250015258789 C-17.839000701904297,125.5250015258789 -119.5979995727539,-24.32699966430664 -119.5979995727539,-24.32699966430664 C-119.5979995727539,-24.32699966430664 -50.893001556396484,-125.5250015258789 -50.893001556396484,-125.5250015258789z" fill-opacity="1" fill="rgb(33,55,69)"></path></g></g><g opacity="1" transform="matrix(1,0,0,1,938.5789794921875,267.98602294921875)" style="display: block;"><g transform="matrix(1,0,0,1,119.8479995727539,125.75300598144531)" opacity="1"><path d="M-50.893001556396484,125.50299835205078 C-50.893001556396484,125.50299835205078 -119.5979995727539,24.319000244140625 -119.5979995727539,24.319000244140625 C-119.5979995727539,24.319000244140625 -17.871000289916992,-125.50299835205078 -17.871000289916992,-125.50299835205078 C-17.871000289916992,-125.50299835205078 119.5979995727539,-125.50299835205078 119.5979995727539,-125.50299835205078 C119.5979995727539,-125.50299835205078 -50.893001556396484,125.50299835205078 -50.893001556396484,125.50299835205078z" fill-opacity="1" fill="rgb(33,55,69)"></path></g><g transform="matrix(1,0,0,1,0,0)" opacity="1"><path d="M0 0" fill-opacity="1" fill="rgb(33,55,69)"></path></g></g><g opacity="1" transform="matrix(1,0,0,1,671.3269653320312,267.9859619140625)" style="display: block;"><g transform="matrix(1,0,0,1,161.2100067138672,271.9840087890625)" opacity="1"><path d="M-23.509000778198242,-271.7340087890625 C-23.509000778198242,-271.7340087890625 -164.9600067138672,-271.7340087890625 -164.9600067138672,-271.7340087890625 C-164.9600067138672,-271.7340087890625 19.538000106811523,0 19.538000106811523,0 C19.538000106811523,0 -164.9600067138672,271.7340087890625 -164.9600067138672,271.7340087890625 C-164.9600067138672,271.7340087890625 -23.538000106811523,271.7340087890625 -23.538000106811523,271.7340087890625 C-23.538000106811523,271.7340087890625 160.9600067138672,0 160.9600067138672,0 C160.9600067138672,0 -23.509000778198242,-271.7340087890625 -23.509000778198242,-271.7340087890625z" fill-opacity="1" fill="rgb(47,231,169)"></path></g></g><g style="display: block;" opacity="1" transform="matrix(0.9999996423721313,0,0,1,330.2489929199219,495.06298828125)"><g transform="matrix(1,0,0,1,164.24000549316406,47.57600021362305)" opacity="1"><path d="M-163.99000549316406,47.32600021362305 C-163.99000549316406,47.32600021362305 163.99000549316406,47.32600021362305 163.99000549316406,47.32600021362305 C163.99000549316406,47.32600021362305 163.99000549316406,-47.32600021362305 163.99000549316406,-47.32600021362305 C163.99000549316406,-47.32600021362305 -163.9290008544922,-47.32600021362305 -163.9290008544922,-47.32600021362305 C-163.9290008544922,-47.32600021362305 -163.99000549316406,47.32600021362305 -163.99000549316406,47.32600021362305z" fill-opacity="1" fill="rgb(33,55,69)"></path></g></g><g style="display: block;" opacity="1" transform="matrix(1,0,0,1,217.57501220703125,267.9859619140625)" clip-path="url(#__lottie_element_4)"><g transform="matrix(1,0,0,1,244.1719970703125,271.9840087890625)" opacity="1"><path d="M-91.6520004272461,-146.06199645996094 C-69.13800048828125,-165.72900390625 -33.827999114990234,-176.0489959716797 14.234999656677246,-177.06700134277344 C14.234999656677246,-177.06700134277344 243.9219970703125,-177.06700134277344 243.9219970703125,-177.06700134277344 C243.9219970703125,-177.06700134277344 179.68600463867188,-271.7340087890625 179.68600463867188,-271.7340087890625 C179.68600463867188,-271.7340087890625 24.12700080871582,-271.7340087890625 24.12700080871582,-271.7340087890625 C-88.2750015258789,-271.7340087890625 -161.0189971923828,-248.26199340820312 -194.177001953125,-202.83799743652344 C-227.36500549316406,-157.41400146484375 -243.9219970703125,-82.4729995727539 -243.9219970703125,21.982999801635742 C-243.9219970703125,21.982999801635742 -243.9219970703125,271.7340087890625 -243.9219970703125,271.7340087890625 C-243.9219970703125,271.7340087890625 -129.2480010986328,271.7340087890625 -129.2480010986328,271.7340087890625 C-129.2480010986328,271.7340087890625 -129.18699645996094,-44.65700149536133 -129.18699645996094,-44.65700149536133 C-126.5780029296875,-92.66200256347656 -114.06199645996094,-126.49800109863281 -91.6520004272461,-146.06199645996094z" fill-opacity="1" fill="rgb(33,55,69)"></path></g></g></g></svg>